<svg xmlns="http://www.w3.org/2000/svg" version="1.1" xmlns:xlink="http://www.w3.org/1999/xlink" xmlns:svgjs="http://svgjs.dev/svgjs" width="1000" height="1000" viewBox="0 0 1000 1000"><rect width="1000" height="1000" fill="#000000"></rect><g transform="matrix(0.7,0,0,0.7,149.57575757575756,282.1265587044535)"><svg viewBox="0 0 396 247" data-background-color="#fbeaab" preserveAspectRatio="xMidYMid meet" height="623" width="1000" xmlns="http://www.w3.org/2000/svg" xmlns:xlink="http://www.w3.org/1999/xlink"><g id="tight-bounds" transform="matrix(1,0,0,1,0.2400000000000091,-0.09999999999999432)"><svg viewBox="0 0 395.52 247.2" height="247.2" width="395.52"><g><svg></svg></g><g><svg viewBox="0 0 395.52 247.2" height="247.2" width="395.52"><g><path xmlns="http://www.w3.org/2000/svg" d="M55.039 247.2l26.403-45.732 232.636 0 26.403 45.732zM197.76 0l26.403 45.732-52.806 0z" fill="#ffffff" fill-rule="nonzero" stroke="none" stroke-width="1" stroke-linecap="butt" stroke-linejoin="miter" stroke-miterlimit="10" stroke-dasharray="" stroke-dashoffset="0" font-family="none" font-weight="none" font-size="none" text-anchor="none" style="mix-blend-mode: normal" data-fill-palette-color="tertiary"></path></g><g transform="matrix(1,0,0,1,20.22199722880049,67.97999999999999)"><svg viewBox="0 0 355.076005542399 111.24" height="111.24" width="355.076005542399"><g><svg viewBox="0 0 397.4975999999999 124.53005084490295" height="111.24" width="355.076005542399"><g><rect width="397.4975999999999" height="3.8141909825253153" x="0" y="68.43624153958044" fill="#ffffff" opacity="1" stroke-width="0" stroke="transparent" fill-opacity="1" class="rect-o-0" data-fill-palette-color="secondary" rx="1%" id="o-0" data-palette-color="#454545"></rect></g><g transform="matrix(1,0,0,1,0.9887999999999693,82.23522567007778)"><svg viewBox="0 0 395.52 42.29482517482518" height="42.29482517482518" width="395.52"><g id="textblocktransform"><svg viewBox="0 0 395.52 42.29482517482518" height="42.29482517482518" width="395.52" id="textblock"><g><svg viewBox="0 0 395.52 42.29482517482518" height="42.29482517482518" width="395.52"><g transform="matrix(1,0,0,1,0,0)"><svg width="395.52" viewBox="0.9500000476837158 -36 343.17999267578125 36.70000076293945" height="42.29482517482518" data-palette-color="#454545"><path d="M27.45-7.8L26.05 0 0.95 0 7.3-36 32.4-36 31-28.2 14.9-28.2 13.75-21.45 27.05-21.45 25.65-13.65 12.35-13.65 11.35-7.8 27.45-7.8ZM45.45-8.75L46.6-8.75 56.1-36 65.85-36 52.2 0 36.2 0 35.8-36 45.6-36 45.45-8.75ZM90.7-7.8L89.3 0 64.2 0 70.55-36 95.65-36 94.25-28.2 78.15-28.2 77-21.45 90.3-21.45 88.9-13.65 75.59-13.65 74.59-7.8 90.7-7.8ZM120.14-36L129.14-36 122.84 0 113.79 0 107.49-19.7 104.09 0 95.04 0 101.39-36 110.69-36 116.89-17.6 120.14-36ZM166.94-36L165.54-28.2 153.24-28.2 148.29 0 139.24 0 144.19-28.2 131.84-28.2 133.24-36 166.94-36ZM183.04-36L197.54-36Q203.24-36 205.64-33.5L205.64-33.5Q207.44-31.6 207.44-28.7L207.44-28.7Q207.44-27.7 207.24-26.6L207.24-26.6 206.79-24.2Q206.24-21.35 204.66-19.75 203.09-18.15 201.89-18.15L201.89-18.15 201.84-17.75Q203.24-17.75 204.69-16.2 206.14-14.65 206.14-12.55L206.14-12.55Q206.14-11.7 205.94-10.75L205.94-10.75 205.64-9.2Q204.84-4.9 201.81-2.45 198.79 0 193.39 0L193.39 0 176.69 0 183.04-36ZM193.04-14.7L193.04-14.7 188.29-14.7 187.09-7.8 191.84-7.8Q191.94-7.8 192.04-7.8L192.04-7.8Q194.34-7.8 195.69-8.88 197.04-9.95 197.04-11.5L197.04-11.5Q197.04-14.7 193.04-14.7ZM194.39-28.2L194.39-28.2 190.64-28.2 189.34-20.75 193.04-20.75Q197.84-20.75 197.84-24.95L197.84-24.95Q197.84-26.4 196.96-27.3 196.09-28.2 194.39-28.2ZM234.36-2.63Q230.38 0.7 223.13 0.7 215.88 0.7 213.08-2.65L213.08-2.65Q211.08-4.95 211.08-9L211.08-9Q211.08-10.8 211.48-12.95L211.48-12.95 215.53-36 224.53-36 220.48-13.15Q220.28-11.9 220.28-10.55L220.28-10.55Q220.28-7.05 224.48-7.05L224.48-7.05Q226.98-7.05 228.48-8.35 229.98-9.65 230.58-13.15L230.58-13.15 234.63-36 243.63-36 239.58-12.95Q238.33-5.95 234.36-2.63ZM250.43-36L264.43-36Q270.98-36 273.78-32.7L273.78-32.7Q275.83-30.2 275.83-26.45L275.83-26.45Q275.83-25.1 275.58-23.6L275.58-23.6 273.63-12.45Q272.63-6.8 268.73-3.4 264.83 0 258.63 0L258.63 0 244.08 0 250.43-36ZM261.28-28.2L261.28-28.2 258.03-28.2 254.48-7.8 259.23-7.8Q261.58-7.8 262.91-9.08 264.23-10.35 264.73-13.25L264.73-13.25 266.18-21.45Q266.38-22.55 266.38-23.45L266.38-23.45Q266.38-28.2 261.28-28.2ZM283.88-36L297.88-36Q304.43-36 307.23-32.7L307.23-32.7Q309.28-30.2 309.28-26.45L309.28-26.45Q309.28-25.1 309.03-23.6L309.03-23.6 307.08-12.45Q306.08-6.8 302.18-3.4 298.28 0 292.08 0L292.08 0 277.53 0 283.88-36ZM294.73-28.2L294.73-28.2 291.48-28.2 287.93-7.8 292.68-7.8Q295.03-7.8 296.35-9.08 297.68-10.35 298.18-13.25L298.18-13.25 299.63-21.45Q299.83-22.55 299.83-23.45L299.83-23.45Q299.83-28.2 294.73-28.2ZM325.53-23.35L326.68-23.35 335.13-36 344.13-36 328.73-13.85 326.28 0 317.23 0 319.68-13.85 312.08-36 321.63-36 325.53-23.35Z" opacity="1" transform="matrix(1,0,0,1,0,0)" fill="#ffffff" class="undefined-text-0" data-fill-palette-color="primary" id="text-0"></path></svg></g></svg></g></svg></g></svg></g><g transform="matrix(1,0,0,1,160.1389250438605,0)"><svg viewBox="0 0 77.21974991227893 58.4514483916084" height="58.4514483916084" width="77.21974991227893"><g><svg xmlns="http://www.w3.org/2000/svg" xmlns:xlink="http://www.w3.org/1999/xlink" version="1.1" x="8" y="0" viewBox="6.110002040863037 7.9110002517700195 76.80400085449219 73.33099365234375" enable-background="new 0 0 90 90" xml:space="preserve" height="58.4514483916084" width="61.21974991227893" class="icon-icon-0" data-fill-palette-color="accent" id="icon-0"><g fill="#454545" data-fill-palette-color="accent"><path d="M82.914 22.033c0-0.829-0.672-1.5-1.5-1.5H67.719c-0.828 0-1.5 0.671-1.5 1.5v5.902c0 0.118 0.017 0.232 0.043 0.342v6.422c-0.323-0.084-0.656-0.143-1.005-0.143-2.208 0-4.004 1.796-4.004 4.004s1.796 4.004 4.004 4.004 4.005-1.796 4.005-4.004c0-0.222-0.031-0.435-0.065-0.647 0.038-0.133 0.065-0.27 0.065-0.415v-8.063H79.9v5.264c-0.323-0.084-0.655-0.143-1.004-0.143-2.208 0-4.004 1.796-4.004 4.004s1.796 4.004 4.004 4.004S82.9 40.768 82.9 38.56c0-0.222-0.031-0.435-0.065-0.647 0.038-0.133 0.065-0.27 0.065-0.415v-9.427c0.004-0.045 0.014-0.089 0.014-0.136V22.033zM69.219 23.533h10.694v2.902H69.219V23.533zM65.257 39.565c-0.554 0-1.004-0.451-1.004-1.004s0.45-1.004 1.004-1.004 1.005 0.451 1.005 1.004S65.811 39.565 65.257 39.565zM78.896 39.565c-0.554 0-1.004-0.451-1.004-1.004s0.45-1.004 1.004-1.004S79.9 38.006 79.9 38.56 79.45 39.565 78.896 39.565z" fill="#ffffff" data-fill-palette-color="accent"></path><path d="M14.119 36.287c0-0.489-0.101-0.952-0.262-1.385v-5.386l10.694-2.04v4.971c-0.343-0.096-0.698-0.164-1.071-0.164-2.208 0-4.005 1.796-4.005 4.004s1.797 4.004 4.005 4.004 4.004-1.796 4.004-4.004c0-0.166-0.029-0.323-0.049-0.484 0.075-0.178 0.116-0.373 0.116-0.579v-9.562V19.76c0-0.447-0.199-0.871-0.544-1.156-0.346-0.285-0.8-0.401-1.237-0.318l-13.694 2.612c-0.707 0.135-1.219 0.753-1.219 1.474v5.903 4.083c-0.241-0.046-0.489-0.075-0.743-0.075-2.208 0-4.004 1.796-4.004 4.004s1.796 4.004 4.004 4.004S14.119 38.495 14.119 36.287zM23.48 37.292c-0.554 0-1.005-0.451-1.005-1.004s0.451-1.004 1.005-1.004 1.004 0.45 1.004 1.004S24.034 37.292 23.48 37.292zM13.857 23.613l10.694-2.04v2.849l-10.694 2.04V23.613zM10.114 37.292c-0.554 0-1.004-0.451-1.004-1.004s0.45-1.004 1.004-1.004c0.371 0 0.683 0.211 0.857 0.511 0.022 0.053 0.052 0.102 0.079 0.151 0.039 0.107 0.069 0.22 0.069 0.341C11.119 36.841 10.667 37.292 10.114 37.292z" fill="#ffffff" data-fill-palette-color="accent"></path><path d="M67.062 58.822c-0.013-9.595-6.093-17.793-14.602-20.96v-5.389c0-0.829-0.672-1.5-1.5-1.5h-4.662V9.411c0-0.829-0.672-1.5-1.5-1.5s-1.5 0.671-1.5 1.5v21.562h-4.854c-0.828 0-1.5 0.671-1.5 1.5v5.366c-8.54 3.151-14.647 11.366-14.66 20.983-0.03 0.118-0.051 0.24-0.051 0.367 0 0.149 0.029 0.291 0.069 0.427 0.405 11.993 10.281 21.626 22.37 21.626s21.966-9.633 22.37-21.626c0.041-0.136 0.069-0.278 0.069-0.427C67.113 59.062 67.092 58.941 67.062 58.822zM61.398 68.617h-4.939c0.706-2.413 1.148-5.082 1.269-7.927h6.242C63.699 63.562 62.788 66.245 61.398 68.617zM25.377 60.69h6.243c0.121 2.845 0.563 5.515 1.269 7.927h-4.94C26.559 66.245 25.648 63.562 25.377 60.69zM27.558 49.762h5.276c-0.689 2.417-1.113 5.087-1.219 7.927h-6.272C25.513 54.84 26.284 52.152 27.558 49.762zM46.173 46.762v-6.004c2.333 0.672 4.427 2.866 5.966 6.004H46.173zM53.347 49.762c0.773 2.376 1.265 5.07 1.388 7.927h-8.562v-7.927H53.347zM43.173 40.759v6.004h-5.965C38.748 43.625 40.841 41.431 43.173 40.759zM43.173 49.762v7.927h-8.561c0.123-2.857 0.615-5.551 1.388-7.927H43.173zM34.618 60.69h8.555v7.927h-7.108C35.273 66.247 34.758 63.554 34.618 60.69zM43.173 71.617v5.811c-2.284-0.658-4.34-2.776-5.87-5.811H43.173zM46.173 77.428v-5.811h5.871C50.514 74.652 48.458 76.77 46.173 77.428zM46.173 68.617V60.69h8.556c-0.14 2.864-0.655 5.557-1.447 7.927H46.173zM57.733 57.69c-0.106-2.841-0.531-5.511-1.219-7.927h5.133c0.046 0 0.09-0.01 0.135-0.014 1.278 2.393 2.051 5.086 2.222 7.941C64.004 57.69 57.733 57.69 57.733 57.69zM59.806 46.762h-4.325c-1.001-2.401-2.295-4.424-3.799-5.968C54.891 42.045 57.687 44.116 59.806 46.762zM39.945 33.973h9.516v3.011c-1.543-0.338-3.144-0.521-4.787-0.521-1.622 0-3.203 0.178-4.729 0.507V33.973zM37.666 40.794c-1.505 1.544-2.799 3.567-3.799 5.968H29.54C31.66 44.116 34.456 42.044 37.666 40.794zM30.114 71.617h3.839c0.832 1.948 1.857 3.643 3.032 5.029C34.333 75.495 31.997 73.761 30.114 71.617zM52.362 76.645c1.176-1.385 2.2-3.08 3.032-5.028h3.838C57.35 73.761 55.014 75.494 52.362 76.645z" fill="#ffffff" data-fill-palette-color="accent"></path><path d="M20.295 47.815l-5.764-2.473c-0.766-0.328-1.644 0.026-1.971 0.787-0.326 0.761 0.026 1.643 0.787 1.97l5.764 2.473c0.193 0.083 0.394 0.122 0.591 0.122 0.582 0 1.136-0.341 1.38-0.909C21.409 49.023 21.056 48.141 20.295 47.815z" fill="#ffffff" data-fill-palette-color="accent"></path><path d="M18.341 69.122l-5.764 2.473c-0.761 0.327-1.113 1.208-0.787 1.97 0.244 0.569 0.798 0.909 1.38 0.909 0.197 0 0.397-0.039 0.591-0.122l5.764-2.473c0.761-0.327 1.113-1.208 0.787-1.97C19.985 69.147 19.105 68.793 18.341 69.122z" fill="#ffffff" data-fill-palette-color="accent"></path><path d="M12.664 61.353l6.271-0.013c0.829-0.002 1.499-0.675 1.497-1.503s-0.673-1.497-1.5-1.497c-0.001 0-0.002 0-0.003 0l-6.271 0.013c-0.829 0.002-1.499 0.675-1.497 1.503s0.673 1.497 1.5 1.497C12.663 61.353 12.664 61.353 12.664 61.353z" fill="#ffffff" data-fill-palette-color="accent"></path><path d="M70.259 50.693c0.197 0 0.397-0.039 0.591-0.122l5.764-2.473c0.761-0.327 1.113-1.208 0.787-1.97-0.327-0.762-1.207-1.114-1.971-0.787l-5.764 2.473c-0.761 0.327-1.113 1.208-0.787 1.97C69.123 50.353 69.677 50.693 70.259 50.693z" fill="#ffffff" data-fill-palette-color="accent"></path><path d="M75.383 71.594l-5.763-2.473c-0.766-0.33-1.645 0.026-1.971 0.787s0.026 1.643 0.787 1.97l5.763 2.473c0.193 0.083 0.394 0.122 0.591 0.122 0.582 0 1.136-0.341 1.38-0.909C76.497 72.803 76.144 71.921 75.383 71.594z" fill="#ffffff" data-fill-palette-color="accent"></path><path d="M77.303 58.353l-6.271-0.013c-0.001 0-0.002 0-0.003 0-0.827 0-1.498 0.669-1.5 1.497-0.002 0.828 0.668 1.501 1.497 1.503l6.271 0.013c0 0 0.002 0 0.003 0 0.827 0 1.498-0.669 1.5-1.497C78.802 59.028 78.132 58.355 77.303 58.353z" fill="#ffffff" data-fill-palette-color="accent"></path></g></svg></g></svg></g><g><rect width="71.10861075646183" height="3.8141909825253153" y="53.637257409083084" x="237.35867495613942" fill="#ffffff" data-fill-palette-color="secondary"></rect><rect width="71.10861075646183" height="3.8141909825253153" y="53.637257409083084" x="89.03031428739867" fill="#ffffff" data-fill-palette-color="secondary"></rect></g></svg></g></svg></g></svg></g><defs></defs></svg><rect width="395.52" height="247.2" fill="none" stroke="none" visibility="hidden"></rect></g></svg></g></svg>